<?xml version="1.0" standalone="no"?>
<!DOCTYPE svg PUBLIC "-//W3C//DTD SVG 20010904//EN"
 "http://www.w3.org/TR/2001/REC-SVG-20010904/DTD/svg10.dtd">
<svg version="1.0" xmlns="http://www.w3.org/2000/svg"
 width="450.000000pt" height="450.000000pt" viewBox="0 0 450.000000 450.000000"
 preserveAspectRatio="xMidYMid meet">

<g transform="translate(0.000000,450.000000) scale(0.100000,-0.100000)"
fill="#000000" stroke="none">
<path d="M1652 3579 c-155 -16 -350 -56 -406 -83 -111 -54 -166 -124 -166
-210 0 -59 26 -110 86 -170 63 -64 118 -99 237 -156 492 -234 1303 -239 1552
-9 63 58 78 90 73 154 -13 157 -249 305 -652 409 -240 63 -512 87 -724 65z"/>
<path d="M856 2598 c-85 -726 -95 -856 -76 -976 62 -388 331 -613 855 -718
156 -32 472 -44 617 -25 399 53 639 258 728 620 17 67 55 347 75 543 4 37 12
71 19 76 32 25 177 65 253 70 69 4 88 1 125 -17 44 -22 80 -65 92 -114 14 -58
6 -220 -24 -482 -36 -306 -37 -408 -4 -452 70 -95 240 -79 294 27 27 54 36
108 96 620 62 533 66 621 25 664 -13 14 -28 23 -32 20 -5 -3 -9 0 -9 6 0 6 -5
8 -11 4 -7 -4 -7 -10 -1 -16 11 -11 -5 -107 -21 -127 -9 -10 -36 -12 -127 -8
-203 10 -519 103 -598 177 -30 29 -20 40 36 40 53 0 94 22 86 45 -4 9 0 15 7
15 8 0 1 11 -15 25 -16 14 -41 25 -56 25 -14 0 -33 6 -42 13 -15 11 -15 26 2
187 11 96 19 200 18 230 l-1 55 -6 -50 c-4 -27 -15 -65 -24 -83 -66 -123 -301
-232 -570 -263 -133 -15 -527 -6 -667 15 -330 52 -599 151 -782 289 -88 66
-129 113 -161 187 l-23 51 -78 -673z m519 -260 c14 -6 25 -16 25 -21 0 -6 -49
-61 -110 -123 -76 -78 -110 -120 -110 -136 0 -24 46 -153 107 -300 47 -115 36
-145 -37 -95 -29 19 -41 43 -102 207 -37 102 -68 198 -68 213 0 35 16 56 132
175 95 96 111 104 163 80z m388 -108 c5 -4 -50 -151 -121 -326 l-129 -319 -48
2 c-26 1 -52 6 -58 12 -6 6 30 108 113 313 67 167 127 311 132 322 8 15 17 17
56 11 26 -4 51 -10 55 -15z m201 -42 c40 -35 206 -315 206 -347 0 -21 -30 -60
-136 -174 -77 -83 -146 -150 -160 -153 -33 -9 -94 4 -94 20 0 6 61 76 135 154
87 91 135 149 135 163 0 12 -43 92 -95 178 -52 86 -95 162 -95 169 0 22 76 15
104 -10z"/>
</g>
</svg>
